<svg id="SvgjsSvg1001" width="288" height="288" xmlns="http://www.w3.org/2000/svg" version="1.1" xmlns:xlink="http://www.w3.org/1999/xlink" xmlns:svgjs="http://svgjs.com/svgjs"><defs id="SvgjsDefs1002"></defs><g id="SvgjsG1008" transform="matrix(0.9167,0,0,0.9167,11.995200000000011,11.995200000000011)"><svg xmlns="http://www.w3.org/2000/svg" width="288" height="288" enable-background="new 0 0 512 512" viewBox="0 0 512 512"><circle cx="256" cy="256" r="256" fill="#30a49c" class="colorfe6a16 svgShape"></circle><path fill="#22938c" d="m261.237 511.947c136.363-2.736 246.563-112.096 250.645-248.125l-69.666-70.63-14.854 8.72-44.241-44.241-90.439 115.023-118.107-118.106-131.48 130.733 38.869 38.869-4.964 3.521z" class="colore83c00 svgShape"></path><path fill="#ffffff" d="m43.095 226.679h425.809v58.642h-425.809z" class="colorfff svgShape"></path><path fill="#f5eae9" d="m43.095 256.253h425.809v29.068h-425.809z" class="colore9edf5 svgShape"></path><path fill="#786363" d="m96.945 335.04c-17.026 0-30.829-13.803-30.829-30.829v-96.423c0-17.026 13.803-30.829 30.829-30.829 17.026 0 30.829 13.803 30.829 30.829v96.423c0 17.027-13.803 30.829-30.829 30.829z" class="color636978 svgShape"></path><path fill="#665655" d="m153.116 366.117c-17.026 0-30.829-13.803-30.829-30.829v-158.576c0-17.026 13.803-30.829 30.829-30.829 17.026 0 30.829 13.803 30.829 30.829v158.577c0 17.026-13.802 30.828-30.829 30.828z" class="color555a66 svgShape"></path><path fill="#786363" d="m415.055 176.96c17.026 0 30.829 13.803 30.829 30.829v96.423c0 17.026-13.803 30.829-30.829 30.829-17.026 0-30.829-13.803-30.829-30.829v-96.423c0-17.027 13.803-30.829 30.829-30.829z" class="color636978 svgShape"></path><path fill="#665655" d="m358.884 145.883c17.026 0 30.829 13.803 30.829 30.829v158.577c0 17.026-13.803 30.829-30.829 30.829-17.026 0-30.829-13.803-30.829-30.829v-158.577c0-17.027 13.802-30.829 30.829-30.829z" class="color555a66 svgShape"></path><g fill="#000000" class="color000 svgShape"><path fill="#524149" d="m66.116 256.253v47.958c0 17.026 13.803 30.829 30.829 30.829 17.026 0 30.829-13.803 30.829-30.829v-47.958z" class="color414952 svgShape"></path><path fill="#403333" d="m122.287 256.253v79.036c0 17.026 13.803 30.829 30.829 30.829 17.026 0 30.829-13.803 30.829-30.829v-79.036z" class="color333940 svgShape"></path><path fill="#524149" d="m384.226 256.253v47.958c0 17.026 13.803 30.829 30.829 30.829 17.026 0 30.829-13.803 30.829-30.829v-47.958z" class="color414952 svgShape"></path><path fill="#403333" d="m328.055 256.253v79.035c0 17.026 13.803 30.829 30.829 30.829 17.026 0 30.829-13.803 30.829-30.829v-79.035z" class="color333940 svgShape"></path></g></svg></g></svg>